Coordinates
version=1
nRows=16
nColumns=40
inDegrees=yes

Units are S.I. units (second, meters, Newtons, ...)
If the header above contains a line with 'inDegrees', this indicates whether rotational values are in degrees (yes) or radians (no).

endheader
time	pelvis_tilt	pelvis_list	pelvis_rotation	pelvis_tx	pelvis_ty	pelvis_tz	hip_flexion_r	hip_adduction_r	hip_rotation_r	knee_angle_r	knee_angle_r_beta	ankle_angle_r	subtalar_angle_r	mtp_angle_r	hip_flexion_l	hip_adduction_l	hip_rotation_l	knee_angle_l	knee_angle_l_beta	ankle_angle_l	subtalar_angle_l	mtp_angle_l	lumbar_extension	lumbar_bending	lumbar_rotation	arm_flex_r	arm_add_r	arm_rot_r	elbow_flex_r	pro_sup_r	wrist_flex_r	wrist_dev_r	arm_flex_l	arm_add_l	arm_rot_l	elbow_flex_l	pro_sup_l	wrist_flex_l	wrist_dev_l
      2.91000000	     -4.86992696	      0.30320507	     -1.32893554	      0.94627454	      1.01878891	     -0.51349789	     -8.59149770	     -2.98934633	     -4.01281501	     23.57616931	      0.41148178	      5.94420184	      0.00000000	      0.00000000	     32.61485462	     -1.28987191	    -10.19972677	     17.97197204	      0.31367009	     -5.90351908	      0.00000000	      0.00000000	     -5.15731392	     -0.45867178	     10.43254555	     -3.69639294	     -7.91595270	    -15.73109964	     75.86722000	     73.80706169	      0.00000000	      0.00000000	    -11.37722316	     -2.72227823	     -1.77342795	     29.29950072	     69.90136104	      0.00000000	      0.00000000
      2.92000000	     -4.64602172	      0.74397484	     -1.47119370	      0.94885679	      1.01849242	     -0.51487355	     -8.25046398	     -3.87248819	     -4.48204125	     25.91463873	      0.45229577	      4.44762129	      0.00000000	      0.00000000	     32.41068317	     -0.95839456	    -10.57016406	     19.49573843	      0.34026483	     -6.17154766	      0.00000000	      0.00000000	     -5.11899730	     -0.97829130	     10.43788681	     -3.89851036	     -7.68076027	    -15.79700972	     74.47051466	     73.92722599	      0.00000000	      0.00000000	    -11.33659434	     -2.85091986	     -1.72850111	     29.36035672	     69.86728725	      0.00000000	      0.00000000
      2.93000000	     -4.43187282	      1.20773340	     -1.66866747	      0.95152802	      1.01834148	     -0.51630035	     -7.67006731	     -4.85772226	     -4.94700843	     28.57697439	      0.49876229	      2.78070990	      0.00000000	      0.00000000	     32.13460304	     -0.64010664	    -10.96405133	     20.97373725	      0.36606077	     -5.98598233	      0.00000000	      0.00000000	     -5.06680373	     -1.50927021	     10.46754204	     -4.14621756	     -7.44534333	    -15.84869646	     72.97391489	     74.04682018	      0.00000000	      0.00000000	    -11.31316745	     -2.94402837	     -1.69644138	     29.52083833	     69.81634148	      0.00000000	      0.00000000
      2.94000000	     -4.54185569	      1.76624680	     -1.95112502	      0.95391667	      1.01785252	     -0.51770071	     -6.38246647	     -6.01213305	     -5.19691664	     31.73184565	      0.55382518	      1.20606822	      0.00000000	      0.00000000	     32.20353916	     -0.26696970	    -11.25410707	     22.43790497	      0.39161532	     -5.46479990	      0.00000000	      0.00000000	     -4.61943701	     -2.14105767	     10.46704616	     -4.38724237	     -7.22483146	    -15.73890774	     71.30610485	     74.33949771	      0.00000000	      0.00000000	    -11.42418409	     -3.05759486	     -1.76194325	     29.93293778	     69.66134033	      0.00000000	      0.00000000
      2.95000000	     -4.27849478	      2.25240526	     -2.11759946	      0.95625832	      1.01819733	     -0.51922097	     -5.44626277	     -7.11519492	     -5.52517020	     34.80806657	      0.60751537	     -1.07593039	      0.00000000	      0.00000000	     31.72053309	      0.15439204	    -11.42113271	     23.65953419	      0.41293677	     -4.43097699	      0.00000000	      0.00000000	     -4.65616482	     -2.67944977	     10.44010802	     -4.62506326	     -7.00661611	    -15.85723846	     69.63278789	     74.47384376	      0.00000000	      0.00000000	    -11.30537684	     -3.17149986	     -1.74154072	     30.20297230	     69.55794087	      0.00000000	      0.00000000
      2.96000000	     -4.25683603	      2.74174350	     -2.25431702	      0.95810739	      1.01843317	     -0.52079847	     -3.96832718	     -8.21170587	     -5.56958895	     38.17266235	      0.66623864	     -3.41075016	      0.00000000	      0.00000000	     31.46367009	      0.63774120	    -11.41043467	     24.78228750	      0.43253251	     -3.40931603	      0.00000000	      0.00000000	     -4.46746442	     -3.20640686	     10.27081246	     -4.79503783	     -6.78297986	    -15.88534449	     67.79649118	     74.68250784	      0.00000000	      0.00000000	    -11.23478305	     -3.27066713	     -1.74931869	     30.65230694	     69.36442669	      0.00000000	      0.00000000
      2.97000000	     -4.19522995	      3.28812842	     -2.30744761	      0.95973584	      1.01893745	     -0.52242424	     -2.39627268	     -9.37187858	     -5.57481826	     41.58699495	      0.72582999	     -5.95862832	      0.00000000	      0.00000000	     31.04485948	      1.24885683	    -11.47366619	     25.70132396	      0.44857273	     -2.39348507	      0.00000000	      0.00000000	     -4.37227787	     -3.79790487	     10.02920904	     -4.95284569	     -6.49758487	    -16.03671336	     65.91111011	     74.79378293	      0.00000000	      0.00000000	    -11.07938328	     -3.40797823	     -1.69233717	     31.08129034	     69.21239148	      0.00000000	      0.00000000
      2.98000000	     -4.19845500	      3.85174194	     -2.35924593	      0.96095830	      1.01953135	     -0.52398575	     -0.54724417	    -10.49391898	     -5.28079539	     45.09520835	      0.78705986	     -8.52046438	      0.00000000	      0.00000000	     30.59535363	      1.89493848	    -11.60027397	     26.40655147	      0.46088127	     -1.49178435	      0.00000000	      0.00000000	     -4.23826417	     -4.39788622	      9.75427870	     -5.09142478	     -6.20580248	    -16.22164263	     63.97945127	     74.86813952	      0.00000000	      0.00000000	    -10.88321727	     -3.55294086	     -1.63519608	     31.58715172	     69.05250777	      0.00000000	      0.00000000
      2.99000000	     -4.11211793	      4.39677362	     -2.46088106	      0.96187265	      1.02037904	     -0.52542289	      1.34192912	    -11.52490392	     -4.74259009	     48.52980296	      0.84700485	    -11.27664729	      0.00000000	      0.00000000	     29.92017725	      2.52539044	    -11.82964780	     26.87070547	      0.46898228	     -0.57963332	      0.00000000	      0.00000000	     -4.26761631	     -4.96801487	      9.55942276	     -5.24678179	     -5.91293037	    -16.52814696	     62.13942282	     74.86357531	      0.00000000	      0.00000000	    -10.55818558	     -3.69276674	     -1.54847961	     32.07034402	     68.95680662	      0.00000000	      0.00000000
      3.00000000	     -4.06277567	      4.92239634	     -2.66262085	      0.96243422	      1.02128461	     -0.52663159	      3.41090033	    -12.36624317	     -3.77228501	     51.85331065	      0.90501100	    -14.15149269	      0.00000000	      0.00000000	     29.20823332	      3.12718404	    -12.04965542	     27.16453226	      0.47411053	      0.28931999	      0.00000000	      0.00000000	     -4.27551412	     -5.51189508	      9.44205315	     -5.40860738	     -5.62967851	    -16.85516847	     60.31510405	     74.82997760	      0.00000000	      0.00000000	    -10.20865312	     -3.82584292	     -1.44998055	     32.61269718	     68.87965411	      0.00000000	      0.00000000
      3.01000000	     -4.24828831	      5.40329448	     -2.97084302	      0.96259308	      1.02197421	     -0.52755438	      5.87533731	    -12.92022926	     -2.34688060	     55.11567565	      0.96195001	    -16.61242674	      0.00000000	      0.00000000	     28.70279031	      3.61634343	    -12.40842915	     27.31592095	      0.47675276	      0.83824079	      0.00000000	      0.00000000	     -4.00416730	     -5.99567208	      9.40882051	     -5.52781780	     -5.35767413	    -17.17682318	     58.29718525	     74.71256756	      0.00000000	      0.00000000	     -9.91814680	     -3.96968971	     -1.36022965	     33.30383713	     68.69935580	      0.00000000	      0.00000000
      3.02000000	     -4.24529620	      5.76283896	     -3.15541592	      0.96262940	      1.02309202	     -0.52844820	      7.97039710	    -13.17361382	     -0.96609971	     57.98438837	      1.01201849	    -18.45927922	      0.00000000	      0.00000000	     27.94876779	      4.07719401	    -12.49344527	     27.38552709	      0.47796762	      1.61859436	      0.00000000	      0.00000000	     -4.01533106	     -6.35705416	      9.30808240	     -5.71047698	     -5.09896991	    -17.56972721	     56.49848593	     74.57515851	      0.00000000	      0.00000000	     -9.46515970	     -4.11424576	     -1.27754241	     33.88888080	     68.56206570	      0.00000000	      0.00000000
      3.03000000	     -4.33707884	      6.07716732	     -3.31228714	      0.96247449	      1.02424171	     -0.52916593	     10.16018603	    -13.27446050	      0.33165978	     60.76009719	      1.06046375	    -18.65933796	      0.00000000	      0.00000000	     27.24734650	      4.46676359	    -12.61654917	     27.31872867	      0.47680176	      2.24078073	      0.00000000	      0.00000000	     -3.90031165	     -6.66131438	      9.16840072	     -5.88359359	     -4.78779732	    -18.05626595	     54.56737841	     74.39384852	      0.00000000	      0.00000000	     -9.02403297	     -4.25539455	     -1.17013787	     34.53169916	     68.41059157	      0.00000000	      0.00000000
      3.04000000	     -4.32142060	      6.25690989	     -3.30884270	      0.96222972	      1.02572636	     -0.52991850	     12.09276582	    -13.22904508	      1.25215805	     63.27198592	      1.10430448	    -17.40357980	      0.00000000	      0.00000000	     26.39413349	      4.78760069	    -12.53547227	     27.19643367	      0.47466731	      2.84555250	      0.00000000	      0.00000000	     -3.96132795	     -6.82748971	      8.89674104	     -6.11977793	     -4.52772078	    -18.55942643	     52.82313775	     74.18484934	      0.00000000	      0.00000000	     -8.49355916	     -4.42731346	     -1.08327155	     35.12646650	     68.26927084	      0.00000000	      0.00000000
      3.05000000	     -4.39676042	      6.39668709	     -3.28514467	      0.96188187	      1.02728610	     -0.53070084	     14.14606425	    -13.17153383	      1.91836792	     65.57088906	      1.14442791	    -15.47422787	      0.00000000	      0.00000000	     25.58361547	      5.07644111	    -12.52600151	     26.96420427	      0.47061414	      3.25120542	      0.00000000	      0.00000000	     -3.88052335	     -6.90586161	      8.57605569	     -6.31620226	     -4.24286238	    -19.15559530	     50.91351830	     73.89809384	      0.00000000	      0.00000000	     -8.05924219	     -4.56496212	     -0.98517837	     35.86088222	     68.07453251	      0.00000000	      0.00000000
      3.06000000	     -4.39076427	      6.43566838	     -3.24845855	      0.96144127	      1.02913752	     -0.53151329	     16.04975675	    -12.97184377	      2.47530503	     67.47705571	      1.17769679	    -13.77001456	      0.00000000	      0.00000000	     24.64886773	      5.31506037	    -12.34281527	     26.68328386	      0.46571116	      3.67601027	      0.00000000	      0.00000000	     -3.92662262	     -6.89299160	      8.24656360	     -6.53745170	     -4.04301125	    -19.69524337	     49.10194941	     73.53312032	      0.00000000	      0.00000000	     -7.57521986	     -4.66308055	     -0.94898129	     36.58935170	     67.82671408	      0.00000000	      0.00000000
